<svg xmlns="http://www.w3.org/2000/svg" id="f5websites" version="1.1" viewBox="0 0 90 90"><defs><linearGradient id="Naamloos_verloop_4" x1="-291.26" x2="-290.41" y1="542.16" y2="542.16" data-name="Naamloos verloop 4" gradientTransform="scale(100.44 -100.44) rotate(-11.14 -2926.39 -1222.79)" gradientUnits="userSpaceOnUse"><stop offset="0" stop-color="#ed1c24"/><stop offset=".18" stop-color="#ed1c24"/><stop offset="1" stop-color="#f9ac0c"/></linearGradient><linearGradient id="Naamloos_verloop_2" x1="-300.07" x2="-299.22" y1="544.75" y2="544.75" data-name="Naamloos verloop 2" gradientTransform="scale(-100.44 100.44) rotate(-70.53 -534.819 60.952)" gradientUnits="userSpaceOnUse"><stop offset="0" stop-color="#385ba1"/><stop offset=".25" stop-color="#385ba1"/><stop offset="1" stop-color="#446ebf"/></linearGradient><linearGradient id="Naamloos_verloop_3" x1="-293.36" x2="-292.5" y1="551.02" y2="551.02" data-name="Naamloos verloop 3" gradientTransform="scale(-100.44 100.44) rotate(50.07 442.513 588.777)" gradientUnits="userSpaceOnUse"><stop offset="0" stop-color="#256d32"/><stop offset=".1" stop-color="#256d32"/><stop offset="1" stop-color="#48bb39"/></linearGradient><style>.st0{fill:none}.st1{fill:#fff}</style></defs><path fill="url(#Naamloos_verloop_4)" d="M66.74 29.94c14.8 10.63 19.62 22.12 18.58 33.61 1.43-3.13 2.53-6.47 3.22-9.99C93.28 29.51 77.62 6.17 53.58 1.44 34.75-2.27 16.37 6.52 6.99 22.06c14.27-14.87 34.92-9.93 59.75 7.88"/><path d="M66.74 29.94c14.8 10.63 19.62 22.12 18.58 33.61 1.43-3.13 2.53-6.47 3.22-9.99C93.28 29.51 77.62 6.17 53.58 1.44 34.75-2.27 16.37 6.52 6.99 22.06c14.27-14.87 34.92-9.93 59.75 7.88Z" class="st0"/><path d="m85.87 63.81-1.15-.31c1.14-12.58-4.86-23.4-18.33-33.07C39.86 11.39 20.57 8.79 7.43 22.48l-.95-.73C16.22 5.6 35.2-2.8 53.69.84c11.79 2.32 21.97 9.1 28.66 19.08 6.7 9.98 9.1 21.97 6.78 33.76a45.49 45.49 0 0 1-3.27 10.12ZM27.25 12.63c10.99 0 24.2 5.6 39.84 16.82 12.44 8.93 18.8 19.26 18.96 30.75.81-2.19 1.44-4.45 1.9-6.75 2.26-11.47-.09-23.14-6.6-32.86-6.52-9.71-16.42-16.3-27.89-18.56-16.36-3.22-33.1 3.23-43.14 16.23 4.93-3.76 10.56-5.64 16.93-5.64Z" class="st1"/><path fill="url(#Naamloos_verloop_2)" d="M20.99 33.94C22.59 15.78 30.03 5.79 40.45.83c-3.42.35-6.85 1.11-10.23 2.31C7.11 11.31-5 36.67 3.16 59.79c6.4 18.1 23.32 29.45 41.46 29.61-20.06-4.72-26.33-25.01-23.64-55.45"/><path d="M20.99 33.94C22.59 15.78 30.03 5.79 40.45.83c-3.42.35-6.85 1.11-10.23 2.31C7.11 11.31-5 36.67 3.16 59.79c6.4 18.1 23.32 29.45 41.46 29.61-20.06-4.72-26.33-25.01-23.64-55.45Z" class="st0"/><path d="M44.62 90C25.77 89.83 8.88 77.77 2.6 59.99c-4-11.33-3.36-23.55 1.82-34.39C9.59 14.75 18.68 6.57 30.01 2.57 33.37 1.38 36.86.59 40.38.23l.32 1.15C29.3 6.81 23.04 17.48 21.58 34c-2.87 32.53 4.71 50.46 23.18 54.81L44.62 90ZM37.19 1.9c-2.3.42-4.57 1.02-6.77 1.8C19.39 7.6 10.55 15.56 5.51 26.12.47 36.67-.16 48.56 3.73 59.58c5.56 15.73 19.64 26.86 35.94 28.88-15.65-6.35-21.96-24.27-19.29-54.57 1.35-15.26 7-26 16.81-31.99Z" class="st1"/><path fill="url(#Naamloos_verloop_3)" d="M47.73 71.29c-16.45 7.87-28.83 6.55-38.4.1a44.24 44.24 0 0 0 7.2 7.63c18.8 15.74 46.78 13.25 62.51-5.55C91.36 58.75 92.51 38.4 83.41 22.7c6.15 19.67-8.12 35.39-35.67 48.58"/><path d="M47.73 71.29c-16.45 7.87-28.83 6.55-38.4.1a44.24 44.24 0 0 0 7.2 7.63c18.8 15.74 46.78 13.25 62.51-5.55C91.36 58.75 92.51 38.4 83.41 22.7c6.15 19.67-8.12 35.39-35.67 48.58Z" class="st0"/><path d="M44.97 89.97c-10.19 0-20.43-3.43-28.83-10.47a45.18 45.18 0 0 1-7.29-7.74l.82-.86c10.47 7.06 22.84 7.01 37.8-.15C76.93 56.66 88.49 41.01 82.83 22.9l1.1-.48c9.46 16.31 7.68 36.99-4.43 51.46-8.88 10.62-21.67 16.09-34.53 16.1ZM11.91 73.66c1.52 1.76 3.2 3.4 5 4.91 18.51 15.5 46.17 13.04 61.66-5.47 10.71-12.8 13.11-30.59 6.55-45.64 2.51 16.7-9.7 31.26-37.13 44.38-13.82 6.61-25.93 7.21-36.08 1.82Z" class="st1"/></svg>
